<?xml version="1.0" encoding="UTF-8" standalone="no"?><svg xmlns="http://www.w3.org/2000/svg" xmlns:xlink="http://www.w3.org/1999/xlink" contentScriptType="application/ecmascript" contentStyleType="text/css" height="611px" preserveAspectRatio="none" style="width:408px;height:611px;" version="1.1" viewBox="0 0 408 611" width="408px" zoomAndPan="magnify"><defs><filter height="300%" id="f423oermyupz0" width="300%" x="-1" y="-1"><feGaussianBlur result="blurOut" stdDeviation="2.0"/><feColorMatrix in="blurOut" result="blurOut2" type="matrix" values="0 0 0 0 0 0 0 0 0 0 0 0 0 0 0 0 0 0 .4 0"/><feOffset dx="4.0" dy="4.0" in="blurOut2" result="blurOut3"/><feBlend in="SourceGraphic" in2="blurOut3" mode="normal"/></filter></defs><g><!--MD5=[b6dcce5e5ef3c84b0b048d11301373dd]
class Game--><rect codeLine="1" fill="#FEFECE" filter="url(#f423oermyupz0)" height="60.8047" id="Game" style="stroke:#A80036;stroke-width:1.5;" width="84" x="134" y="7"/><ellipse cx="156.65" cy="23" fill="#ADD1B2" rx="11" ry="11" style="stroke:#A80036;stroke-width:1.0;"/><path d="M158.9938,18.6719 C158.0563,18.2344 157.4625,18.0938 156.5875,18.0938 C153.9625,18.0938 151.9625,20.1719 151.9625,22.8906 L151.9625,24.0156 C151.9625,26.5938 154.0719,28.4844 156.9625,28.4844 C158.1813,28.4844 159.3375,28.1875 160.0875,27.6406 C160.6656,27.2344 160.9938,26.7813 160.9938,26.3906 C160.9938,25.9375 160.6031,25.5469 160.1344,25.5469 C159.9156,25.5469 159.7125,25.625 159.525,25.8125 C159.0719,26.2969 159.0719,26.2969 158.8844,26.3906 C158.4625,26.6563 157.775,26.7813 157.0094,26.7813 C154.9625,26.7813 153.6656,25.6875 153.6656,23.9844 L153.6656,22.8906 C153.6656,21.1094 154.9156,19.7969 156.65,19.7969 C157.2281,19.7969 157.8375,19.9531 158.3063,20.2031 C158.7906,20.4844 158.9625,20.7031 159.0563,21.1094 C159.1188,21.5156 159.15,21.6406 159.2906,21.7656 C159.4313,21.9063 159.6656,22.0156 159.8844,22.0156 C160.15,22.0156 160.4156,21.875 160.5875,21.6563 C160.6969,21.5 160.7281,21.3125 160.7281,20.8906 L160.7281,19.4688 C160.7281,19.0313 160.7125,18.9063 160.6188,18.75 C160.4625,18.4844 160.1813,18.3438 159.8844,18.3438 C159.5875,18.3438 159.3844,18.4375 159.1656,18.75 L158.9938,18.6719 Z " fill="#000000"/><text fill="#000000" font-family="sans-serif" font-size="12" lengthAdjust="spacing" textLength="35" x="172.35" y="27.1543">Game</text><line style="stroke:#A80036;stroke-width:1.5;" x1="135" x2="217" y1="39" y2="39"/><ellipse cx="145" cy="50" fill="none" rx="3" ry="3" style="stroke:#038048;stroke-width:1.0;"/><text fill="#000000" font-family="sans-serif" font-size="11" lengthAdjust="spacing" textLength="58" x="154" y="53.2104">title:String</text><line style="stroke:#A80036;stroke-width:1.5;" x1="135" x2="217" y1="59.8047" y2="59.8047"/><!--MD5=[064f7a74fee85463ec1a30143664ee17]
class GameObject--><rect codeLine="4" fill="#FEFECE" filter="url(#f423oermyupz0)" height="112.0234" id="GameObject" style="stroke:#A80036;stroke-width:1.5;" width="134" x="148" y="296"/><ellipse cx="175.15" cy="312" fill="#ADD1B2" rx="11" ry="11" style="stroke:#A80036;stroke-width:1.0;"/><path d="M177.4938,307.6719 C176.5563,307.2344 175.9625,307.0938 175.0875,307.0938 C172.4625,307.0938 170.4625,309.1719 170.4625,311.8906 L170.4625,313.0156 C170.4625,315.5938 172.5719,317.4844 175.4625,317.4844 C176.6813,317.4844 177.8375,317.1875 178.5875,316.6406 C179.1656,316.2344 179.4938,315.7813 179.4938,315.3906 C179.4938,314.9375 179.1031,314.5469 178.6344,314.5469 C178.4156,314.5469 178.2125,314.625 178.025,314.8125 C177.5719,315.2969 177.5719,315.2969 177.3844,315.3906 C176.9625,315.6563 176.275,315.7813 175.5094,315.7813 C173.4625,315.7813 172.1656,314.6875 172.1656,312.9844 L172.1656,311.8906 C172.1656,310.1094 173.4156,308.7969 175.15,308.7969 C175.7281,308.7969 176.3375,308.9531 176.8063,309.2031 C177.2906,309.4844 177.4625,309.7031 177.5563,310.1094 C177.6188,310.5156 177.65,310.6406 177.7906,310.7656 C177.9313,310.9063 178.1656,311.0156 178.3844,311.0156 C178.65,311.0156 178.9156,310.875 179.0875,310.6563 C179.1969,310.5 179.2281,310.3125 179.2281,309.8906 L179.2281,308.4688 C179.2281,308.0313 179.2125,307.9063 179.1188,307.75 C178.9625,307.4844 178.6813,307.3438 178.3844,307.3438 C178.0875,307.3438 177.8844,307.4375 177.6656,307.75 L177.4938,307.6719 Z " fill="#000000"/><text fill="#000000" font-family="sans-serif" font-size="12" lengthAdjust="spacing" textLength="75" x="191.85" y="316.1543">GameObject</text><line style="stroke:#A80036;stroke-width:1.5;" x1="149" x2="281" y1="328" y2="328"/><ellipse cx="159" cy="339" fill="none" rx="3" ry="3" style="stroke:#038048;stroke-width:1.0;"/><text fill="#000000" font-family="sans-serif" font-size="11" lengthAdjust="spacing" textLength="82" x="168" y="342.2104">position:vec2d</text><ellipse cx="159" cy="351.8047" fill="none" rx="3" ry="3" style="stroke:#038048;stroke-width:1.0;"/><text fill="#000000" font-family="sans-serif" font-size="11" lengthAdjust="spacing" textLength="83" x="168" y="355.0151">velocity:vec2d</text><ellipse cx="159" cy="364.6094" fill="none" rx="3" ry="3" style="stroke:#038048;stroke-width:1.0;"/><text fill="#000000" font-family="sans-serif" font-size="11" lengthAdjust="spacing" textLength="108" x="168" y="367.8198">acceleration:vec2d</text><ellipse cx="159" cy="377.4141" fill="none" rx="3" ry="3" style="stroke:#038048;stroke-width:1.0;"/><text fill="#000000" font-family="sans-serif" font-size="11" lengthAdjust="spacing" textLength="46" x="168" y="380.6245">layer:int</text><ellipse cx="159" cy="390.2188" fill="none" rx="3" ry="3" style="stroke:#038048;stroke-width:1.0;"/><text fill="#000000" font-family="sans-serif" font-size="11" lengthAdjust="spacing" textLength="56" x="168" y="393.4292">priority:int</text><line style="stroke:#A80036;stroke-width:1.5;" x1="149" x2="281" y1="400.0234" y2="400.0234"/><!--MD5=[e961b80dae7be6d0961c0e6b7ad7c600]
class BoundingBox--><rect codeLine="11" fill="#FEFECE" filter="url(#f423oermyupz0)" height="112.0234" id="BoundingBox" style="stroke:#A80036;stroke-width:1.5;" width="111" x="26.5" y="485"/><ellipse cx="41.5" cy="501" fill="#ADD1B2" rx="11" ry="11" style="stroke:#A80036;stroke-width:1.0;"/><path d="M43.8438,496.6719 C42.9063,496.2344 42.3125,496.0938 41.4375,496.0938 C38.8125,496.0938 36.8125,498.1719 36.8125,500.8906 L36.8125,502.0156 C36.8125,504.5938 38.9219,506.4844 41.8125,506.4844 C43.0313,506.4844 44.1875,506.1875 44.9375,505.6406 C45.5156,505.2344 45.8438,504.7813 45.8438,504.3906 C45.8438,503.9375 45.4531,503.5469 44.9844,503.5469 C44.7656,503.5469 44.5625,503.625 44.375,503.8125 C43.9219,504.2969 43.9219,504.2969 43.7344,504.3906 C43.3125,504.6563 42.625,504.7813 41.8594,504.7813 C39.8125,504.7813 38.5156,503.6875 38.5156,501.9844 L38.5156,500.8906 C38.5156,499.1094 39.7656,497.7969 41.5,497.7969 C42.0781,497.7969 42.6875,497.9531 43.1563,498.2031 C43.6406,498.4844 43.8125,498.7031 43.9063,499.1094 C43.9688,499.5156 44,499.6406 44.1406,499.7656 C44.2813,499.9063 44.5156,500.0156 44.7344,500.0156 C45,500.0156 45.2656,499.875 45.4375,499.6563 C45.5469,499.5 45.5781,499.3125 45.5781,498.8906 L45.5781,497.4688 C45.5781,497.0313 45.5625,496.9063 45.4688,496.75 C45.3125,496.4844 45.0313,496.3438 44.7344,496.3438 C44.4375,496.3438 44.2344,496.4375 44.0156,496.75 L43.8438,496.6719 Z " fill="#000000"/><text fill="#000000" font-family="sans-serif" font-size="12" lengthAdjust="spacing" textLength="79" x="55.5" y="505.1543">BoundingBox</text><line style="stroke:#A80036;stroke-width:1.5;" x1="27.5" x2="136.5" y1="517" y2="517"/><ellipse cx="37.5" cy="528" fill="none" rx="3" ry="3" style="stroke:#038048;stroke-width:1.0;"/><text fill="#000000" font-family="sans-serif" font-size="11" lengthAdjust="spacing" textLength="49" x="46.5" y="531.2104">x:double</text><ellipse cx="37.5" cy="540.8047" fill="none" rx="3" ry="3" style="stroke:#038048;stroke-width:1.0;"/><text fill="#000000" font-family="sans-serif" font-size="11" lengthAdjust="spacing" textLength="49" x="46.5" y="544.0151">y:double</text><ellipse cx="37.5" cy="553.6094" fill="none" rx="3" ry="3" style="stroke:#038048;stroke-width:1.0;"/><text fill="#000000" font-family="sans-serif" font-size="11" lengthAdjust="spacing" textLength="51" x="46.5" y="556.8198">w:double</text><ellipse cx="37.5" cy="566.4141" fill="none" rx="3" ry="3" style="stroke:#038048;stroke-width:1.0;"/><text fill="#000000" font-family="sans-serif" font-size="11" lengthAdjust="spacing" textLength="49" x="46.5" y="569.6245">h:double</text><ellipse cx="37.5" cy="579.2188" fill="none" rx="3" ry="3" style="stroke:#038048;stroke-width:1.0;"/><text fill="#000000" font-family="sans-serif" font-size="11" lengthAdjust="spacing" textLength="46" x="46.5" y="582.4292">layer:int</text><line style="stroke:#A80036;stroke-width:1.5;" x1="27.5" x2="136.5" y1="589.0234" y2="589.0234"/><!--MD5=[4244cd3406ac0d8586b91910871fbb1a]
class Asteroid--><rect codeLine="18" fill="#FEFECE" filter="url(#f423oermyupz0)" height="60.8047" id="Asteroid" style="stroke:#A80036;stroke-width:1.5;" width="84" x="173" y="510.5"/><ellipse cx="188.45" cy="526.5" fill="#ADD1B2" rx="11" ry="11" style="stroke:#A80036;stroke-width:1.0;"/><path d="M190.7938,522.1719 C189.8563,521.7344 189.2625,521.5938 188.3875,521.5938 C185.7625,521.5938 183.7625,523.6719 183.7625,526.3906 L183.7625,527.5156 C183.7625,530.0938 185.8719,531.9844 188.7625,531.9844 C189.9813,531.9844 191.1375,531.6875 191.8875,531.1406 C192.4656,530.7344 192.7938,530.2813 192.7938,529.8906 C192.7938,529.4375 192.4031,529.0469 191.9344,529.0469 C191.7156,529.0469 191.5125,529.125 191.325,529.3125 C190.8719,529.7969 190.8719,529.7969 190.6844,529.8906 C190.2625,530.1563 189.575,530.2813 188.8094,530.2813 C186.7625,530.2813 185.4656,529.1875 185.4656,527.4844 L185.4656,526.3906 C185.4656,524.6094 186.7156,523.2969 188.45,523.2969 C189.0281,523.2969 189.6375,523.4531 190.1063,523.7031 C190.5906,523.9844 190.7625,524.2031 190.8563,524.6094 C190.9188,525.0156 190.95,525.1406 191.0906,525.2656 C191.2313,525.4063 191.4656,525.5156 191.6844,525.5156 C191.95,525.5156 192.2156,525.375 192.3875,525.1563 C192.4969,525 192.5281,524.8125 192.5281,524.3906 L192.5281,522.9688 C192.5281,522.5313 192.5125,522.4063 192.4188,522.25 C192.2625,521.9844 191.9813,521.8438 191.6844,521.8438 C191.3875,521.8438 191.1844,521.9375 190.9656,522.25 L190.7938,522.1719 Z " fill="#000000"/><text fill="#000000" font-family="sans-serif" font-size="12" lengthAdjust="spacing" textLength="51" x="202.55" y="530.6543">Asteroid</text><line style="stroke:#A80036;stroke-width:1.5;" x1="174" x2="256" y1="542.5" y2="542.5"/><ellipse cx="184" cy="553.5" fill="none" rx="3" ry="3" style="stroke:#038048;stroke-width:1.0;"/><text fill="#000000" font-family="sans-serif" font-size="11" lengthAdjust="spacing" textLength="58" x="193" y="556.7104">energy:int</text><line style="stroke:#A80036;stroke-width:1.5;" x1="174" x2="256" y1="563.3047" y2="563.3047"/><!--MD5=[0dc7f2ddb409b58bcf52b12238c25399]
class Ship--><rect codeLine="21" fill="#FEFECE" filter="url(#f423oermyupz0)" height="86.4141" id="Ship" style="stroke:#A80036;stroke-width:1.5;" width="84" x="292" y="498"/><ellipse cx="318.7" cy="514" fill="#ADD1B2" rx="11" ry="11" style="stroke:#A80036;stroke-width:1.0;"/><path d="M321.0438,509.6719 C320.1063,509.2344 319.5125,509.0938 318.6375,509.0938 C316.0125,509.0938 314.0125,511.1719 314.0125,513.8906 L314.0125,515.0156 C314.0125,517.5938 316.1219,519.4844 319.0125,519.4844 C320.2313,519.4844 321.3875,519.1875 322.1375,518.6406 C322.7156,518.2344 323.0438,517.7813 323.0438,517.3906 C323.0438,516.9375 322.6531,516.5469 322.1844,516.5469 C321.9656,516.5469 321.7625,516.625 321.575,516.8125 C321.1219,517.2969 321.1219,517.2969 320.9344,517.3906 C320.5125,517.6563 319.825,517.7813 319.0594,517.7813 C317.0125,517.7813 315.7156,516.6875 315.7156,514.9844 L315.7156,513.8906 C315.7156,512.1094 316.9656,510.7969 318.7,510.7969 C319.2781,510.7969 319.8875,510.9531 320.3563,511.2031 C320.8406,511.4844 321.0125,511.7031 321.1063,512.1094 C321.1688,512.5156 321.2,512.6406 321.3406,512.7656 C321.4813,512.9063 321.7156,513.0156 321.9344,513.0156 C322.2,513.0156 322.4656,512.875 322.6375,512.6563 C322.7469,512.5 322.7781,512.3125 322.7781,511.8906 L322.7781,510.4688 C322.7781,510.0313 322.7625,509.9063 322.6688,509.75 C322.5125,509.4844 322.2313,509.3438 321.9344,509.3438 C321.6375,509.3438 321.4344,509.4375 321.2156,509.75 L321.0438,509.6719 Z " fill="#000000"/><text fill="#000000" font-family="sans-serif" font-size="12" lengthAdjust="spacing" textLength="26" x="335.3" y="518.1543">Ship</text><line style="stroke:#A80036;stroke-width:1.5;" x1="293" x2="375" y1="530" y2="530"/><ellipse cx="303" cy="541" fill="none" rx="3" ry="3" style="stroke:#038048;stroke-width:1.0;"/><text fill="#000000" font-family="sans-serif" font-size="11" lengthAdjust="spacing" textLength="58" x="312" y="544.2104">energy:int</text><ellipse cx="303" cy="553.8047" fill="none" rx="3" ry="3" style="stroke:#038048;stroke-width:1.0;"/><text fill="#000000" font-family="sans-serif" font-size="11" lengthAdjust="spacing" textLength="41" x="312" y="557.0151">lifes:int</text><ellipse cx="303" cy="566.6094" fill="none" rx="3" ry="3" style="stroke:#038048;stroke-width:1.0;"/><text fill="#000000" font-family="sans-serif" font-size="11" lengthAdjust="spacing" textLength="39" x="312" y="569.8198">fuel:int</text><line style="stroke:#A80036;stroke-width:1.5;" x1="293" x2="375" y1="576.4141" y2="576.4141"/><!--MD5=[e4faacc5b8aef66b11ab0c816bbbc7f8]
class Scene--><rect codeLine="26" fill="#FEFECE" filter="url(#f423oermyupz0)" height="73.6094" id="Scene" style="stroke:#A80036;stroke-width:1.5;" width="97" x="14.5" y="145"/><ellipse cx="41.65" cy="161" fill="#ADD1B2" rx="11" ry="11" style="stroke:#A80036;stroke-width:1.0;"/><path d="M43.9938,156.6719 C43.0563,156.2344 42.4625,156.0938 41.5875,156.0938 C38.9625,156.0938 36.9625,158.1719 36.9625,160.8906 L36.9625,162.0156 C36.9625,164.5938 39.0719,166.4844 41.9625,166.4844 C43.1813,166.4844 44.3375,166.1875 45.0875,165.6406 C45.6656,165.2344 45.9938,164.7813 45.9938,164.3906 C45.9938,163.9375 45.6031,163.5469 45.1344,163.5469 C44.9156,163.5469 44.7125,163.625 44.525,163.8125 C44.0719,164.2969 44.0719,164.2969 43.8844,164.3906 C43.4625,164.6563 42.775,164.7813 42.0094,164.7813 C39.9625,164.7813 38.6656,163.6875 38.6656,161.9844 L38.6656,160.8906 C38.6656,159.1094 39.9156,157.7969 41.65,157.7969 C42.2281,157.7969 42.8375,157.9531 43.3063,158.2031 C43.7906,158.4844 43.9625,158.7031 44.0563,159.1094 C44.1188,159.5156 44.15,159.6406 44.2906,159.7656 C44.4313,159.9063 44.6656,160.0156 44.8844,160.0156 C45.15,160.0156 45.4156,159.875 45.5875,159.6563 C45.6969,159.5 45.7281,159.3125 45.7281,158.8906 L45.7281,157.4688 C45.7281,157.0313 45.7125,156.9063 45.6188,156.75 C45.4625,156.4844 45.1813,156.3438 44.8844,156.3438 C44.5875,156.3438 44.3844,156.4375 44.1656,156.75 L43.9938,156.6719 Z " fill="#000000"/><text fill="#000000" font-family="sans-serif" font-size="12" lengthAdjust="spacing" textLength="38" x="58.35" y="165.1543">Scene</text><line style="stroke:#A80036;stroke-width:1.5;" x1="15.5" x2="110.5" y1="177" y2="177"/><ellipse cx="25.5" cy="188" fill="none" rx="3" ry="3" style="stroke:#038048;stroke-width:1.0;"/><text fill="#000000" font-family="sans-serif" font-size="11" lengthAdjust="spacing" textLength="69" x="34.5" y="191.2104">name:String</text><ellipse cx="25.5" cy="200.8047" fill="none" rx="3" ry="3" style="stroke:#038048;stroke-width:1.0;"/><text fill="#000000" font-family="sans-serif" font-size="11" lengthAdjust="spacing" textLength="71" x="34.5" y="204.0151">game:Game</text><line style="stroke:#A80036;stroke-width:1.5;" x1="15.5" x2="110.5" y1="210.6094" y2="210.6094"/><!--MD5=[6c2d33e2e0e635669b291061275d5282]
class DemoScene--><rect codeLine="30" fill="#FEFECE" filter="url(#f423oermyupz0)" height="48" id="DemoScene" style="stroke:#A80036;stroke-width:1.5;" width="106" x="7" y="328"/><ellipse cx="22" cy="344" fill="#ADD1B2" rx="11" ry="11" style="stroke:#A80036;stroke-width:1.0;"/><path d="M24.3438,339.6719 C23.4063,339.2344 22.8125,339.0938 21.9375,339.0938 C19.3125,339.0938 17.3125,341.1719 17.3125,343.8906 L17.3125,345.0156 C17.3125,347.5938 19.4219,349.4844 22.3125,349.4844 C23.5313,349.4844 24.6875,349.1875 25.4375,348.6406 C26.0156,348.2344 26.3438,347.7813 26.3438,347.3906 C26.3438,346.9375 25.9531,346.5469 25.4844,346.5469 C25.2656,346.5469 25.0625,346.625 24.875,346.8125 C24.4219,347.2969 24.4219,347.2969 24.2344,347.3906 C23.8125,347.6563 23.125,347.7813 22.3594,347.7813 C20.3125,347.7813 19.0156,346.6875 19.0156,344.9844 L19.0156,343.8906 C19.0156,342.1094 20.2656,340.7969 22,340.7969 C22.5781,340.7969 23.1875,340.9531 23.6563,341.2031 C24.1406,341.4844 24.3125,341.7031 24.4063,342.1094 C24.4688,342.5156 24.5,342.6406 24.6406,342.7656 C24.7813,342.9063 25.0156,343.0156 25.2344,343.0156 C25.5,343.0156 25.7656,342.875 25.9375,342.6563 C26.0469,342.5 26.0781,342.3125 26.0781,341.8906 L26.0781,340.4688 C26.0781,340.0313 26.0625,339.9063 25.9688,339.75 C25.8125,339.4844 25.5313,339.3438 25.2344,339.3438 C24.9375,339.3438 24.7344,339.4375 24.5156,339.75 L24.3438,339.6719 Z " fill="#000000"/><text fill="#000000" font-family="sans-serif" font-size="12" lengthAdjust="spacing" textLength="74" x="36" y="348.1543">DemoScene</text><line style="stroke:#A80036;stroke-width:1.5;" x1="8" x2="112" y1="360" y2="360"/><line style="stroke:#A80036;stroke-width:1.5;" x1="8" x2="112" y1="368" y2="368"/><!--MD5=[fdd7da9010b17023535d2baa3a3c9e81]
class Render--><rect codeLine="31" fill="#FEFECE" filter="url(#f423oermyupz0)" height="60.8047" id="Render" style="stroke:#A80036;stroke-width:1.5;" width="97" x="153.5" y="151.5"/><ellipse cx="178.4" cy="167.5" fill="#ADD1B2" rx="11" ry="11" style="stroke:#A80036;stroke-width:1.0;"/><path d="M180.7438,163.1719 C179.8063,162.7344 179.2125,162.5938 178.3375,162.5938 C175.7125,162.5938 173.7125,164.6719 173.7125,167.3906 L173.7125,168.5156 C173.7125,171.0938 175.8219,172.9844 178.7125,172.9844 C179.9313,172.9844 181.0875,172.6875 181.8375,172.1406 C182.4156,171.7344 182.7438,171.2813 182.7438,170.8906 C182.7438,170.4375 182.3531,170.0469 181.8844,170.0469 C181.6656,170.0469 181.4625,170.125 181.275,170.3125 C180.8219,170.7969 180.8219,170.7969 180.6344,170.8906 C180.2125,171.1563 179.525,171.2813 178.7594,171.2813 C176.7125,171.2813 175.4156,170.1875 175.4156,168.4844 L175.4156,167.3906 C175.4156,165.6094 176.6656,164.2969 178.4,164.2969 C178.9781,164.2969 179.5875,164.4531 180.0563,164.7031 C180.5406,164.9844 180.7125,165.2031 180.8063,165.6094 C180.8688,166.0156 180.9,166.1406 181.0406,166.2656 C181.1813,166.4063 181.4156,166.5156 181.6344,166.5156 C181.9,166.5156 182.1656,166.375 182.3375,166.1563 C182.4469,166 182.4781,165.8125 182.4781,165.3906 L182.4781,163.9688 C182.4781,163.5313 182.4625,163.4063 182.3688,163.25 C182.2125,162.9844 181.9313,162.8438 181.6344,162.8438 C181.3375,162.8438 181.1344,162.9375 180.9156,163.25 L180.7438,163.1719 Z " fill="#000000"/><text fill="#000000" font-family="sans-serif" font-size="12" lengthAdjust="spacing" textLength="43" x="194.6" y="171.6543">Render</text><line style="stroke:#A80036;stroke-width:1.5;" x1="154.5" x2="249.5" y1="183.5" y2="183.5"/><ellipse cx="164.5" cy="194.5" fill="none" rx="3" ry="3" style="stroke:#038048;stroke-width:1.0;"/><text fill="#000000" font-family="sans-serif" font-size="11" lengthAdjust="spacing" textLength="71" x="173.5" y="197.7104">game:Game</text><line style="stroke:#A80036;stroke-width:1.5;" x1="154.5" x2="249.5" y1="204.3047" y2="204.3047"/><!--MD5=[1d3be8e6638431b0241ae6e6799cd98f]
class PhysicEngine--><rect codeLine="34" fill="#FEFECE" filter="url(#f423oermyupz0)" height="60.8047" id="PhysicEngine" style="stroke:#A80036;stroke-width:1.5;" width="109" x="285.5" y="151.5"/><ellipse cx="300.5" cy="167.5" fill="#ADD1B2" rx="11" ry="11" style="stroke:#A80036;stroke-width:1.0;"/><path d="M302.8438,163.1719 C301.9063,162.7344 301.3125,162.5938 300.4375,162.5938 C297.8125,162.5938 295.8125,164.6719 295.8125,167.3906 L295.8125,168.5156 C295.8125,171.0938 297.9219,172.9844 300.8125,172.9844 C302.0313,172.9844 303.1875,172.6875 303.9375,172.1406 C304.5156,171.7344 304.8438,171.2813 304.8438,170.8906 C304.8438,170.4375 304.4531,170.0469 303.9844,170.0469 C303.7656,170.0469 303.5625,170.125 303.375,170.3125 C302.9219,170.7969 302.9219,170.7969 302.7344,170.8906 C302.3125,171.1563 301.625,171.2813 300.8594,171.2813 C298.8125,171.2813 297.5156,170.1875 297.5156,168.4844 L297.5156,167.3906 C297.5156,165.6094 298.7656,164.2969 300.5,164.2969 C301.0781,164.2969 301.6875,164.4531 302.1563,164.7031 C302.6406,164.9844 302.8125,165.2031 302.9063,165.6094 C302.9688,166.0156 303,166.1406 303.1406,166.2656 C303.2813,166.4063 303.5156,166.5156 303.7344,166.5156 C304,166.5156 304.2656,166.375 304.4375,166.1563 C304.5469,166 304.5781,165.8125 304.5781,165.3906 L304.5781,163.9688 C304.5781,163.5313 304.5625,163.4063 304.4688,163.25 C304.3125,162.9844 304.0313,162.8438 303.7344,162.8438 C303.4375,162.8438 303.2344,162.9375 303.0156,163.25 L302.8438,163.1719 Z " fill="#000000"/><text fill="#000000" font-family="sans-serif" font-size="12" lengthAdjust="spacing" textLength="77" x="314.5" y="171.6543">PhysicEngine</text><line style="stroke:#A80036;stroke-width:1.5;" x1="286.5" x2="393.5" y1="183.5" y2="183.5"/><ellipse cx="296.5" cy="194.5" fill="none" rx="3" ry="3" style="stroke:#038048;stroke-width:1.0;"/><text fill="#000000" font-family="sans-serif" font-size="11" lengthAdjust="spacing" textLength="71" x="305.5" y="197.7104">game:Game</text><line style="stroke:#A80036;stroke-width:1.5;" x1="286.5" x2="393.5" y1="204.3047" y2="204.3047"/><!--MD5=[eea4a3a121fa265cff44b42ffae3f63d]
reverse link GameObject to Asteroid--><path d="M215,428.474 C215,457.263 215,488.421 215,510.466 " fill="none" id="GameObject-backto-Asteroid" style="stroke:#A80036;stroke-width:1.0;"/><polygon fill="none" points="208,428.095,215,408.095,222,428.095,208,428.095" style="stroke:#A80036;stroke-width:1.0;"/><!--MD5=[a211e118b6320ef4375bf69edfe952c0]
reverse link GameObject to Ship--><path d="M260.878,425.094 C276.512,449.661 293.471,476.312 307.118,497.7566 " fill="none" id="GameObject-backto-Ship" style="stroke:#A80036;stroke-width:1.0;"/><polygon fill="none" points="254.892,428.726,250.06,408.095,266.703,421.21,254.892,428.726" style="stroke:#A80036;stroke-width:1.0;"/><!--MD5=[cde2345a546a02b6200ac764888d6c26]
reverse link Scene to DemoScene--><path d="M61.9935,239.362 C61.4537,269.591 60.8179,305.195 60.4121,327.923 " fill="none" id="Scene-backto-DemoScene" style="stroke:#A80036;stroke-width:1.0;"/><polygon fill="none" points="55.0004,238.912,62.3564,219.04,68.9981,239.162,55.0004,238.912" style="stroke:#A80036;stroke-width:1.0;"/><!--MD5=[c5fe75116d474ab8b5760420f0ae6672]
reverse link Game to Render--><path codeLine="37" d="M183.758,81.019 C187.87,103.559 192.824,130.706 196.53,151.021 " fill="none" id="Game-backto-Render" style="stroke:#A80036;stroke-width:1.0;"/><polygon fill="#A80036" points="181.387,68.026,178.5294,74.6467,183.5417,79.831,186.3994,73.2102,181.387,68.026" style="stroke:#A80036;stroke-width:1.0;"/><text fill="#000000" font-family="sans-serif" font-size="13" lengthAdjust="spacing" textLength="42" x="191" y="111.0669">render</text><!--MD5=[6daf738ded73e3689ce0d60ef566ac97]
reverse link Game to PhysicEngine--><path codeLine="38" d="M219.927,76.668 C246.864,100.074 280.848,129.603 305.781,151.267 " fill="none" id="Game-backto-PhysicEngine" style="stroke:#A80036;stroke-width:1.0;"/><polygon fill="#A80036" points="209.981,68.026,211.8868,74.9807,219.0396,75.8964,217.1337,68.9417,209.981,68.026" style="stroke:#A80036;stroke-width:1.0;"/><text fill="#000000" font-family="sans-serif" font-size="13" lengthAdjust="spacing" textLength="41" x="264" y="111.0669">physic</text><!--MD5=[890af0e6868bb536d2943b061fac5c30]
link Game to Scene--><path codeLine="39" d="M133.898,45.508 C103.7615,52.962 65.2442,68.028 46,98 C37.0993,111.862 39.2406,129.482 44.4658,144.918 " fill="none" id="Game-Scene" style="stroke:#A80036;stroke-width:1.0;"/><text fill="#000000" font-family="sans-serif" font-size="13" lengthAdjust="spacing" textLength="45" x="47" y="111.0669">scenes</text><text fill="#000000" font-family="sans-serif" font-size="13" lengthAdjust="spacing" textLength="8" x="117.9742" y="42.6904">1</text><text fill="#000000" font-family="sans-serif" font-size="13" lengthAdjust="spacing" textLength="7" x="33.4032" y="133.8133">*</text><!--MD5=[890af0e6868bb536d2943b061fac5c30]
link Game to Scene--><path codeLine="40" d="M152.586,68.026 C134.874,90.363 110.462,121.147 91.5945,144.941 " fill="none" id="Game-Scene-1" style="stroke:#A80036;stroke-width:1.0;"/><text fill="#000000" font-family="sans-serif" font-size="13" lengthAdjust="spacing" textLength="38" x="128" y="111.0669">scene</text><text fill="#000000" font-family="sans-serif" font-size="13" lengthAdjust="spacing" textLength="8" x="138.9319" y="87.9696">1</text><text fill="#000000" font-family="sans-serif" font-size="13" lengthAdjust="spacing" textLength="8" x="88.1291" y="133.8406">1</text><!--MD5=[f4d63fcf3c3f9ec184a09811972fa376]
link Scene to GameObject--><path codeLine="41" d="M95.6078,219.04 C115.846,241.408 142.257,270.6 165.091,295.838 " fill="none" id="Scene-GameObject" style="stroke:#A80036;stroke-width:1.0;"/><text fill="#000000" font-family="sans-serif" font-size="13" lengthAdjust="spacing" textLength="46" x="136" y="262.0669">objects</text><text fill="#000000" font-family="sans-serif" font-size="13" lengthAdjust="spacing" textLength="8" x="92.5248" y="238.8072">1</text><text fill="#000000" font-family="sans-serif" font-size="13" lengthAdjust="spacing" textLength="8" x="150.1839" y="284.7552">n</text><!--MD5=[0a54fcc1afbb2da599ec34abc057b795]
link Render to GameObject--><path codeLine="42" d="M204.294,212.648 C206.073,235.633 208.588,268.131 210.733,295.856 " fill="none" id="Render-GameObject" style="stroke:#A80036;stroke-width:1.0;"/><text fill="#000000" font-family="sans-serif" font-size="13" lengthAdjust="spacing" textLength="46" x="210" y="262.0669">objects</text><text fill="#000000" font-family="sans-serif" font-size="13" lengthAdjust="spacing" textLength="8" x="195.9581" y="232.2576">1</text><text fill="#000000" font-family="sans-serif" font-size="13" lengthAdjust="spacing" textLength="8" x="201.6738" y="284.7755">n</text><!--MD5=[a4fbdf6bb08105e18fdd78cf29967afe]
link PhysicEngine to GameObject--><path codeLine="43" d="M317.94,212.648 C300.839,235.633 276.658,268.131 256.03,295.856 " fill="none" id="PhysicEngine-GameObject" style="stroke:#A80036;stroke-width:1.0;"/><text fill="#000000" font-family="sans-serif" font-size="13" lengthAdjust="spacing" textLength="46" x="290" y="262.0669">objects</text><text fill="#000000" font-family="sans-serif" font-size="13" lengthAdjust="spacing" textLength="8" x="304.8094" y="232.2576">1</text><text fill="#000000" font-family="sans-serif" font-size="13" lengthAdjust="spacing" textLength="8" x="252.7745" y="284.7755">n</text><!--MD5=[b9f8e2335c2a7708d5bbcb55f3d376d6]
link GameObject to GameObject--><path codeLine="44" d="M282.196,334.428 C301.809,335.035 317,340.893 317,352 C317,363.107 301.809,368.965 282.196,369.572 " fill="none" id="GameObject-GameObject" style="stroke:#A80036;stroke-width:1.0;"/><text fill="#000000" font-family="sans-serif" font-size="13" lengthAdjust="spacing" textLength="29" x="323" y="356.5669">child</text><text fill="#000000" font-family="sans-serif" font-size="13" lengthAdjust="spacing" textLength="8" x="289.9831" y="328.7586">1</text><text fill="#000000" font-family="sans-serif" font-size="13" lengthAdjust="spacing" textLength="8" x="289.9831" y="367.7465">n</text><!--MD5=[26cc0911ab0b8c20b6ffb68e49f35d33]
link GameObject to BoundingBox--><path codeLine="45" d="M175.815,408.095 C158.574,432.335 138.369,460.744 121.135,484.976 " fill="none" id="GameObject-BoundingBox" style="stroke:#A80036;stroke-width:1.0;"/><text fill="#000000" font-family="sans-serif" font-size="13" lengthAdjust="spacing" textLength="32" x="154" y="451.0669">bbox</text><text fill="#000000" font-family="sans-serif" font-size="13" lengthAdjust="spacing" textLength="8" x="162.5518" y="427.9192">1</text><text fill="#000000" font-family="sans-serif" font-size="13" lengthAdjust="spacing" textLength="8" x="117.6367" y="473.9109">1</text><!--MD5=[12056e87a4a8580055fe8e25b8b9061e]
@startuml
class Game{
    +title:String
}
class GameObject{
    +position:vec2d
    +velocity:vec2d
    +acceleration:vec2d
    +layer:int
    +priority:int
}
class BoundingBox{
    +x:double
    +y:double
    +w:double
    +h:double
    +layer:int
}
class Asteroid extends GameObject{
    +energy:int
}
class Ship extends GameObject{
    +energy:int
    +lifes:int
    +fuel:int
}
class Scene{
    +name:String
    +game:Game
}
class DemoScene extends Scene
class Render{
    +game:Game
}
class PhysicEngine{
    +game:Game
}
Game *- - Render:render
Game *- - PhysicEngine:physic
Game "1" - - "*" Scene:scenes
Game "1" - - "1" Scene:scene
Scene "1" - - "n" GameObject:objects
Render "1" - - "n" GameObject:objects
PhysicEngine "1" - - "n" GameObject:objects
GameObject "1" - - "n" GameObject:child
GameObject "1" - - "1" BoundingBox:bbox
@enduml

PlantUML version 1.2021.01beta7(Unknown compile time)
(GPL source distribution)
Java Runtime: Java(TM) SE Runtime Environment
JVM: Java HotSpot(TM) 64-Bit Server VM
Default Encoding: UTF-8
Language: en
Country: US
--></g></svg>